{
  "accessors": [
    {
      "bufferView": 2,
      "componentType": 5126,
      "count": 38,
      "max": [
        1.0,
        0.056761790066957474,
        1.0
      ],
      "min": [
        -1.0,
        0.0,
        -1.0
      ],
      "type": "VEC3"
    },
    {
      "bufferView": 2,
      "byteOffset": 456,
      "componentType": 5126,
      "count": 38,
      "max": [
        0.7763041257858276,
        1.0,
        1.0
      ],
      "min": [
        -1.0,
        -1.0,
        -1.0
      ],
      "type": "VEC3"
    },
    {
      "bufferView": 1,
      "componentType": 5126,
      "count": 38,
      "max": [
        0.7155925035476685,
        0.6892018914222717
      ],
      "min": [
        0.3656074106693268,
        0.31079810857772827
      ],
      "type": "VEC2"
    },
    {
      "bufferView": 1,
      "byteOffset": 304,
      "componentType": 5126,
      "count": 38,
      "max": [
        0.7155925035476685,
        0.6892018914222717
      ],
      "min": [
        0.3656074106693268,
        0.31079810857772827
      ],
      "type": "VEC2"
    },
    {
      "bufferView": 1,
      "byteOffset": 608,
      "componentType": 5126,
      "count": 38,
      "max": [
        0.7155925035476685,
        0.6892018914222717
      ],
      "min": [
        0.3656074106693268,
        0.31079810857772827
      ],
      "type": "VEC2"
    },
    {
      "bufferView": 0,
      "componentType": 5125,
      "count": 60,
      "type": "SCALAR"
    },
    {
      "bufferView": 2,
      "byteOffset": 912,
      "componentType": 5126,
      "count": 38,
      "max": [
        1.0,
        0.056761790066957474,
        1.0
      ],
      "min": [
        -1.0,
        0.0,
        -1.0
      ],
      "type": "VEC3"
    },
    {
      "bufferView": 2,
      "byteOffset": 1368,
      "componentType": 5126,
      "count": 38,
      "max": [
        0.7763041257858276,
        1.0,
        1.0
      ],
      "min": [
        -1.0,
        -1.0,
        -1.0
      ],
      "type": "VEC3"
    },
    {
      "bufferView": 1,
      "byteOffset": 912,
      "componentType": 5126,
      "count": 38,
      "max": [
        0.7155925035476685,
        0.6892018914222717
      ],
      "min": [
        0.3656074106693268,
        0.31079810857772827
      ],
      "type": "VEC2"
    },
    {
      "bufferView": 1,
      "byteOffset": 1216,
      "componentType": 5126,
      "count": 38,
      "max": [
        0.7155925035476685,
        0.6892018914222717
      ],
      "min": [
        0.3656074106693268,
        0.31079810857772827
      ],
      "type": "VEC2"
    },
    {
      "bufferView": 1,
      "byteOffset": 1520,
      "componentType": 5126,
      "count": 38,
      "max": [
        0.7155925035476685,
        0.6892018914222717
      ],
      "min": [
        0.3656074106693268,
        0.31079810857772827
      ],
      "type": "VEC2"
    },
    {
      "bufferView": 0,
      "byteOffset": 240,
      "componentType": 5125,
      "count": 60,
      "type": "SCALAR"
    },
    {
      "bufferView": 2,
      "byteOffset": 1824,
      "componentType": 5126,
      "count": 57409,
      "max": [
        0.6873425245285034,
        5.594265460968018,
        4.145829677581787
      ],
      "min": [
        -0.6262953877449036,
        -5.665219306945801,
        -3.1128945350646973
      ],
      "type": "VEC3"
    },
    {
      "bufferView": 2,
      "byteOffset": 690732,
      "componentType": 5126,
      "count": 57409,
      "max": [
        1.0,
        1.0,
        1.0
      ],
      "min": [
        -1.0,
        -1.0,
        -1.0
      ],
      "type": "VEC3"
    },
    {
      "bufferView": 1,
      "byteOffset": 1824,
      "componentType": 5126,
      "count": 57409,
      "max": [
        0.9305458068847656,
        0.7950106859207153
      ],
      "min": [
        0.08025544881820679,
        0.19569462537765503
      ],
      "type": "VEC2"
    },
    {
      "bufferView": 1,
      "byteOffset": 461096,
      "componentType": 5126,
      "count": 57409,
      "max": [
        0.9921875,
        1.0
      ],
      "min": [
        0.0,
        0.0078125
      ],
      "type": "VEC2"
    },
    {
      "bufferView": 1,
      "byteOffset": 920368,
      "componentType": 5126,
      "count": 57409,
      "max": [
        0.0,
        1.0
      ],
      "min": [
        0.0,
        1.0
      ],
      "type": "VEC2"
    },
    {
      "bufferView": 1,
      "byteOffset": 1379640,
      "componentType": 5126,
      "count": 57409,
      "max": [
        0.9305458068847656,
        0.7950106859207153
      ],
      "min": [
        0.08025544881820679,
        0.19569462537765503
      ],
      "type": "VEC2"
    },
    {
      "bufferView": 1,
      "byteOffset": 1838912,
      "componentType": 5126,
      "count": 57409,
      "max": [
        0.9305458068847656,
        0.7950106859207153
      ],
      "min": [
        0.08025544881820679,
        0.19569462537765503
      ],
      "type": "VEC2"
    },
    {
      "bufferView": 0,
      "byteOffset": 480,
      "componentType": 5125,
      "count": 118329,
      "type": "SCALAR"
    },
    {
      "bufferView": 2,
      "byteOffset": 1379640,
      "componentType": 5126,
      "count": 64,
      "max": [
        -0.30626189708709717,
        0.629823625087738,
        4.145829677581787
      ],
      "min": [
        -0.5945832133293152,
        -0.624599814414978,
        1.2093734741210938
      ],
      "type": "VEC3"
    },
    {
      "bufferView": 2,
      "byteOffset": 1380408,
      "componentType": 5126,
      "count": 64,
      "max": [
        1.0,
        1.0,
        -0.0
      ],
      "min": [
        -1.0,
        -1.0,
        -1.0
      ],
      "type": "VEC3"
    },
    {
      "bufferView": 3,
      "componentType": 5126,
      "count": 64,
      "max": [
        1.0,
        1.0,
        -0.0,
        1.0
      ],
      "min": [
        0.0,
        -1.0,
        -0.0,
        -1.0
      ],
      "type": "VEC4"
    },
    {
      "bufferView": 1,
      "byteOffset": 2298184,
      "componentType": 5126,
      "count": 64,
      "max": [
        0.7373046875,
        1.8037109375
      ],
      "min": [
        0.402099609375,
        -0.9345703125
      ],
      "type": "VEC2"
    },
    {
      "bufferView": 1,
      "byteOffset": 2298696,
      "componentType": 5126,
      "count": 64,
      "max": [
        0.98876953125,
        0.9919357299804688
      ],
      "min": [
        0.00806427001953125,
        0.01123046875
      ],
      "type": "VEC2"
    },
    {
      "bufferView": 1,
      "byteOffset": 2299208,
      "componentType": 5126,
      "count": 64,
      "max": [
        0.0,
        1.0
      ],
      "min": [
        0.0,
        1.0
      ],
      "type": "VEC2"
    },
    {
      "bufferView": 1,
      "byteOffset": 2299720,
      "componentType": 5126,
      "count": 64,
      "max": [
        0.7373046875,
        1.8037109375
      ],
      "min": [
        0.402099609375,
        -0.9345703125
      ],
      "type": "VEC2"
    },
    {
      "bufferView": 1,
      "byteOffset": 2300232,
      "componentType": 5126,
      "count": 64,
      "max": [
        0.7373046875,
        1.8037109375
      ],
      "min": [
        0.402099609375,
        -0.9345703125
      ],
      "type": "VEC2"
    },
    {
      "bufferView": 1,
      "byteOffset": 2300744,
      "componentType": 5126,
      "count": 64,
      "max": [
        0.7373046875,
        1.8037109375
      ],
      "min": [
        0.402099609375,
        -0.9345703125
      ],
      "type": "VEC2"
    },
    {
      "bufferView": 0,
      "byteOffset": 473796,
      "componentType": 5125,
      "count": 132,
      "type": "SCALAR"
    },
    {
      "bufferView": 2,
      "byteOffset": 1381176,
      "componentType": 5126,
      "count": 2100,
      "max": [
        1.830318808555603,
        2.0019736289978027,
        -2.317023992538452
      ],
      "min": [
        1.7136666774749756,
        1.5478788614273071,
        -4.678104877471924
      ],
      "type": "VEC3"
    },
    {
      "bufferView": 2,
      "byteOffset": 1406376,
      "componentType": 5126,
      "count": 2100,
      "max": [
        0.002777195069938898,
        0.467377632856369,
        0.12875808775424957
      ],
      "min": [
        -0.9999215602874756,
        -0.9916722178459167,
        -0.026124367490410805
      ],
      "type": "VEC3"
    },
    {
      "bufferView": 1,
      "byteOffset": 2301256,
      "componentType": 5126,
      "count": 2100,
      "max": [
        0.358642578125,
        0.49609375
      ],
      "min": [
        0.30615234375,
        0.224609375
      ],
      "type": "VEC2"
    },
    {
      "bufferView": 1,
      "byteOffset": 2318056,
      "componentType": 5126,
      "count": 2100,
      "max": [
        0.99169921875,
        0.9919357299804688
      ],
      "min": [
        0.00806427001953125,
        0.00830078125
      ],
      "type": "VEC2"
    },
    {
      "bufferView": 1,
      "byteOffset": 2334856,
      "componentType": 5126,
      "count": 2100,
      "max": [
        0.0,
        1.0
      ],
      "min": [
        0.0,
        1.0
      ],
      "type": "VEC2"
    },
    {
      "bufferView": 0,
      "byteOffset": 474324,
      "componentType": 5125,
      "count": 11964,
      "type": "SCALAR"
    },
    {
      "bufferView": 2,
      "byteOffset": 1431576,
      "componentType": 5126,
      "count": 2100,
      "max": [
        1.8341079950332642,
        -1.1325281858444214,
        -2.323612928390503
      ],
      "min": [
        1.7168577909469604,
        -1.5869301557540894,
        -4.678020000457764
      ],
      "type": "VEC3"
    },
    {
      "bufferView": 2,
      "byteOffset": 1456776,
      "componentType": 5126,
      "count": 2100,
      "max": [
        -0.4501565992832184,
        0.8909438252449036,
        0.07312311232089996
      ],
      "min": [
        -0.9999281167984009,
        -0.4848344326019287,
        -0.02014259807765484
      ],
      "type": "VEC3"
    },
    {
      "bufferView": 1,
      "byteOffset": 2351656,
      "componentType": 5126,
      "count": 2100,
      "max": [
        0.358642578125,
        0.49609375
      ],
      "min": [
        0.30615234375,
        0.224609375
      ],
      "type": "VEC2"
    },
    {
      "bufferView": 1,
      "byteOffset": 2368456,
      "componentType": 5126,
      "count": 2100,
      "max": [
        0.99169921875,
        0.9919357299804688
      ],
      "min": [
        0.00806427001953125,
        0.00830078125
      ],
      "type": "VEC2"
    },
    {
      "bufferView": 1,
      "byteOffset": 2385256,
      "componentType": 5126,
      "count": 2100,
      "max": [
        0.0,
        1.0
      ],
      "min": [
        0.0,
        1.0
      ],
      "type": "VEC2"
    },
    {
      "bufferView": 0,
      "byteOffset": 522180,
      "componentType": 5125,
      "count": 11964,
      "type": "SCALAR"
    }
  ],
  "asset": {
    "extras": {
      "author": "Rahulkrishna (https://sketchfab.com/Krishna_Bros)",
      "license": "CC-BY-4.0 (http://creativecommons.org/licenses/by/4.0/)",
      "source": "https://sketchfab.com/3d-models/medieval-door-4d8b766cc80344cdb95e3a0473e13bb9",
      "title": "Medieval Door"
    },
    "generator": "Sketchfab-11.14.0",
    "version": "2.0"
  },
  "bufferViews": [
    {
      "buffer": 0,
      "byteLength": 570036,
      "name": "floatBufferViews",
      "target": 34963
    },
    {
      "buffer": 0,
      "byteLength": 2402056,
      "byteOffset": 570036,
      "byteStride": 8,
      "name": "floatBufferViews",
      "target": 34962
    },
    {
      "buffer": 0,
      "byteLength": 1481976,
      "byteOffset": 2972092,
      "byteStride": 12,
      "name": "floatBufferViews",
      "target": 34962
    },
    {
      "buffer": 0,
      "byteLength": 1024,
      "byteOffset": 4454068,
      "byteStride": 16,
      "name": "floatBufferViews",
      "target": 34962
    }
  ],
  "buffers": [
    {
      "byteLength": 4455092,
      "uri": "scene.bin"
    }
  ],
  "extensionsUsed": [
    "KHR_texture_transform"
  ],
  "images": [
    {
      "uri": "textures/Medival_Door_baseColor.jpeg"
    },
    {
      "uri": "textures/Medival_Door_metallicRoughness.png"
    },
    {
      "uri": "textures/Material.002_baseColor.png"
    },
    {
      "uri": "textures/Material.002_metallicRoughness.png"
    },
    {
      "uri": "textures/Material.002_normal.png"
    },
    {
      "uri": "textures/Material.001_baseColor.jpeg"
    }
  ],
  "materials": [
    {
      "doubleSided": true,
      "name": "Medival_Door",
      "pbrMetallicRoughness": {
        "baseColorTexture": {
          "extensions": {
            "KHR_texture_transform": {
              "scale": [
                1.5,
                5.5
              ]
            }
          },
          "index": 0
        },
        "metallicFactor": 0.0,
        "metallicRoughnessTexture": {
          "extensions": {
            "KHR_texture_transform": {
              "scale": [
                1.5,
                5.5
              ]
            }
          },
          "index": 1
        }
      }
    },
    {
      "doubleSided": true,
      "name": "Material.002",
      "normalTexture": {
        "index": 4
      },
      "pbrMetallicRoughness": {
        "baseColorTexture": {
          "index": 2
        },
        "metallicRoughnessTexture": {
          "index": 3
        }
      }
    },
    {
      "doubleSided": true,
      "name": "Material.001",
      "pbrMetallicRoughness": {
        "baseColorTexture": {
          "index": 5
        },
        "metallicFactor": 0.0,
        "roughnessFactor": 0.5
      }
    }
  ],
  "meshes": [
    {
      "name": "Object_0",
      "primitives": [
        {
          "attributes": {
            "NORMAL": 1,
            "POSITION": 0,
            "TEXCOORD_0": 2,
            "TEXCOORD_1": 3,
            "TEXCOORD_2": 4
          },
          "indices": 5,
          "material": 0,
          "mode": 4
        }
      ]
    },
    {
      "name": "Object_1",
      "primitives": [
        {
          "attributes": {
            "NORMAL": 7,
            "POSITION": 6,
            "TEXCOORD_0": 8,
            "TEXCOORD_1": 9,
            "TEXCOORD_2": 10
          },
          "indices": 11,
          "material": 0,
          "mode": 4
        }
      ]
    },
    {
      "name": "Object_2",
      "primitives": [
        {
          "attributes": {
            "NORMAL": 13,
            "POSITION": 12,
            "TEXCOORD_0": 14,
            "TEXCOORD_1": 15,
            "TEXCOORD_2": 16,
            "TEXCOORD_3": 17,
            "TEXCOORD_4": 18
          },
          "indices": 19,
          "material": 0,
          "mode": 4
        }
      ]
    },
    {
      "name": "Object_3",
      "primitives": [
        {
          "attributes": {
            "NORMAL": 21,
            "POSITION": 20,
            "TANGENT": 22,
            "TEXCOORD_0": 23,
            "TEXCOORD_1": 24,
            "TEXCOORD_2": 25,
            "TEXCOORD_3": 26,
            "TEXCOORD_4": 27,
            "TEXCOORD_5": 28
          },
          "indices": 29,
          "material": 1,
          "mode": 4
        }
      ]
    },
    {
      "name": "Object_4",
      "primitives": [
        {
          "attributes": {
            "NORMAL": 31,
            "POSITION": 30,
            "TEXCOORD_0": 32,
            "TEXCOORD_1": 33,
            "TEXCOORD_2": 34
          },
          "indices": 35,
          "material": 2,
          "mode": 4
        }
      ]
    },
    {
      "name": "Object_5",
      "primitives": [
        {
          "attributes": {
            "NORMAL": 37,
            "POSITION": 36,
            "TEXCOORD_0": 38,
            "TEXCOORD_1": 39,
            "TEXCOORD_2": 40
          },
          "indices": 41,
          "material": 2,
          "mode": 4
        }
      ]
    }
  ],
  "nodes": [
    {
      "children": [
        1
      ],
      "matrix": [
        1.0,
        0.0,
        0.0,
        0.0,
        0.0,
        2.220446049250313e-16,
        -1.0,
        0.0,
        0.0,
        1.0,
        2.220446049250313e-16,
        0.0,
        0.0,
        0.0,
        0.0,
        1.0
      ],
      "name": "Sketchfab_model"
    },
    {
      "children": [
        2
      ],
      "name": "root"
    },
    {
      "children": [
        3,
        5,
        7,
        10,
        12
      ],
      "matrix": [
        1.0,
        0.0,
        0.0,
        0.0,
        0.0,
        2.220446049250313e-16,
        1.0,
        0.0,
        0.0,
        -1.0,
        2.220446049250313e-16,
        0.0,
        0.0,
        0.0,
        0.0,
        1.0
      ],
      "name": "GLTF_SceneRootNode"
    },
    {
      "children": [
        4
      ],
      "matrix": [
        4.8038155705779354e-08,
        -0.5698902606964091,
        0.0,
        0.0,
        0.5698902606964091,
        4.8038155705779354e-08,
        0.0,
        0.0,
        0.0,
        0.0,
        0.5973588228225708,
        0.0,
        0.30421674251556396,
        3.074289083480835,
        0.08092236518859863,
        1.0
      ],
      "name": "Medieval_Door_1_0"
    },
    {
      "mesh": 0,
      "name": "Object_4"
    },
    {
      "children": [
        6
      ],
      "matrix": [
        4.8038155705779354e-08,
        -0.5698902606964091,
        0.0,
        0.0,
        0.5698902606964091,
        4.8038155705779354e-08,
        0.0,
        0.0,
        0.0,
        0.0,
        0.5973588228225708,
        0.0,
        0.01333940401673317,
        3.074289083480835,
        0.08092236518859863,
        1.0
      ],
      "name": "Medieval_Door_2_1"
    },
    {
      "mesh": 1,
      "name": "Object_6"
    },
    {
      "children": [
        8,
        9
      ],
      "matrix": [
        0.52756267786026,
        0.0,
        0.0,
        0.0,
        0.0,
        0.0,
        0.52756267786026,
        0.0,
        0.0,
        -0.52756267786026,
        0.0,
        0.0,
        0.333352267742157,
        2.2647898197174072,
        0.08252401649951935,
        1.0
      ],
      "name": "Medieval_Door_2"
    },
    {
      "mesh": 2,
      "name": "Object_8"
    },
    {
      "mesh": 3,
      "name": "Object_9"
    },
    {
      "children": [
        11
      ],
      "matrix": [
        0.52756267786026,
        0.0,
        0.0,
        0.0,
        0.0,
        0.0,
        0.52756267786026,
        0.0,
        0.0,
        -0.52756267786026,
        0.0,
        0.0,
        -0.48102352023124695,
        -0.04811328649520874,
        -0.026583407074213028,
        1.0
      ],
      "name": "Flag02_3"
    },
    {
      "mesh": 4,
      "name": "Object_11"
    },
    {
      "children": [
        13
      ],
      "matrix": [
        0.52756267786026,
        0.0,
        0.0,
        0.0,
        0.0,
        0.0,
        0.52756267786026,
        0.0,
        0.0,
        -0.52756267786026,
        0.0,
        0.0,
        -0.48102352023124695,
        -0.04811328649520874,
        -0.026583407074213028,
        1.0
      ],
      "name": "Flag_4"
    },
    {
      "mesh": 5,
      "name": "Object_13"
    }
  ],
  "samplers": [
    {
      "magFilter": 9729,
      "minFilter": 9987,
      "wrapS": 10497,
      "wrapT": 10497
    }
  ],
  "scene": 0,
  "scenes": [
    {
      "name": "Sketchfab_Scene",
      "nodes": [
        0
      ]
    }
  ],
  "textures": [
    {
      "sampler": 0,
      "source": 0
    },
    {
      "sampler": 0,
      "source": 1
    },
    {
      "sampler": 0,
      "source": 2
    },
    {
      "sampler": 0,
      "source": 3
    },
    {
      "sampler": 0,
      "source": 4
    },
    {
      "sampler": 0,
      "source": 5
    }
  ]
}
